Coordinates
version=1
nRows=19
nColumns=36
inDegrees=yes

Units are S.I. units (second, meters, Newtons, ...)
If the header above contains a line with 'inDegrees', this indicates whether rotational values are in degrees (yes) or radians (no).

endheader
time	pelvis_tilt	pelvis_list	pelvis_rotation	pelvis_tx	pelvis_ty	pelvis_tz	hip_flexion_r	hip_adduction_r	hip_rotation_r	knee_angle_r	knee_angle_r_beta	ankle_angle_r	subtalar_angle_r	mtp_angle_r	hip_flexion_l	hip_adduction_l	hip_rotation_l	knee_angle_l	knee_angle_l_beta	ankle_angle_l	subtalar_angle_l	mtp_angle_l	lumbar_extension	lumbar_bending	lumbar_rotation	arm_flex_r	arm_add_r	arm_rot_r	elbow_flex_r	pro_sup_r	arm_flex_l	arm_add_l	arm_rot_l	elbow_flex_l	pro_sup_l
      7.90000000	    -33.46700292	     -4.62396680	     10.95945548	      0.89179662	      0.74365886	      0.03007470	     76.73043546	      2.79730854	     -5.75994367	     68.42968865	      1.19432337	     28.31646074	    -17.92984199	     -7.49999987	     35.50839534	     -7.07750734	     -0.90599158	     78.88313219	      1.37677038	    -24.43631425	     -6.22967133	     -7.49999987	    -38.96118324	     17.62963865	     10.23244603	     96.27374628	    -12.77770208	     84.02024350	    140.28595610	     86.90798066	     84.98445815	      8.06672109	     57.59564346	    119.75850936	     91.53545280
      7.91666670	    -33.56950138	     -4.59373606	     10.35902732	      0.88746687	      0.74061788	      0.02725512	     77.17181085	      2.79095015	     -5.92989590	     68.73995793	      1.19973859	     28.76092267	    -17.10245722	     -7.49999987	     35.55517404	     -7.15762847	     -1.39126304	     79.23979836	      1.38299538	    -24.46271951	     -6.51303156	     -7.49999987	    -39.58624444	     17.95160064	     11.06212038	     97.92164768	    -12.75116234	     84.41826039	    140.68408526	     86.97237842	     85.51879514	      8.17200818	     56.75879116	    119.78378537	     92.23911826
      7.93333330	    -33.98212650	     -4.53868467	     10.11904145	      0.88301043	      0.73905148	      0.02683774	     78.11374502	      2.72597690	     -5.65076125	     68.96119465	      1.20359990	     28.68215974	    -17.02030331	     -7.49999987	     36.53725039	     -7.07750883	     -1.48014690	     79.76029242	      1.39207972	    -25.22536359	     -7.02926810	     -7.49999987	    -39.94248937	     18.01351495	     11.55824776	     99.31607203	    -13.04607905	     84.52415236	    140.96615336	     86.35422026	     86.34342954	      8.46194415	     56.14147105	    119.47436133	     95.85280728
      7.95000000	    -34.36960808	     -4.49790578	      9.76819262	      0.88262048	      0.73524652	      0.03464625	     79.32329081	      3.12107606	     -5.73788068	     69.71700726	      1.21679132	     28.70986158	    -17.01295724	     -7.49999987	     37.07108096	     -7.67539150	     -1.51118247	     80.10277248	      1.39805712	    -25.29980850	     -6.02341839	     -7.49999987	    -40.26499672	     17.67203160	     11.89844328	    100.10963516	    -13.16275975	     84.82111511	    140.80293055	     86.32161555	     86.98641132	      8.53131971	     56.03765821	    119.87013610	     95.86206359
      7.96666670	    -34.62477586	     -4.70156881	      9.42599231	      0.88985810	      0.73261168	      0.03345412	     79.88463146	      3.83946893	     -5.85019609	     70.43680833	      1.22935422	     29.03197687	    -17.33771524	     -7.49999987	     36.37849678	     -8.16168487	     -1.17512611	     79.18712718	      1.38207609	    -25.36102531	     -5.74118339	     -7.49999987	    -40.42413378	     17.62667219	     12.21075072	    100.23227433	    -13.09856893	     84.96833040	    140.55277085	     86.31460468	     86.97662706	      8.58278350	     56.17935196	    119.96743840	     95.87665126
      7.98333330	    -34.74710227	     -4.88491067	      8.95158038	      0.88481084	      0.72615648	      0.03931177	     80.67518028	      4.80974370	     -5.95429173	     70.98494438	      1.23892100	     28.86303940	    -17.90350039	     -7.49999987	     35.94071196	     -8.98094976	     -1.08775991	     78.73128953	      1.37412023	    -25.12805883	     -5.28812806	     -7.49999987	    -40.95472841	     17.08313052	     12.36468186	    100.98490676	    -12.74842996	     85.59255897	    140.68541487	     84.68099259	     87.71274877	      8.25823046	     56.63387586	    120.01915836	     93.95351510
      8.00000000	    -35.10828916	     -4.85952458	      8.54000411	      0.88091161	      0.71742808	      0.03813181	     82.34031114	      5.42217695	     -5.75618699	     72.54332076	      1.26611980	     29.25506647	    -18.12345796	     -7.49999987	     36.17481069	     -9.24578116	     -1.26808815	     79.40667593	      1.38590794	    -24.16484660	     -6.01039237	     -7.49999987	    -40.90357290	     16.66133032	     12.48232324	    101.60233630	    -12.57851016	     85.10703795	    140.87199731	     84.66985599	     88.39027771	      8.02812000	     56.34257386	    120.00993415	     94.04807301
      8.01666670	    -35.42055746	     -4.70602001	      8.50880788	      0.88326136	      0.71947724	      0.04170467	     83.06894916	      5.97815233	     -5.21013461	     72.93346500	      1.27292910	     28.69343468	    -19.23602985	     -7.49999987	     36.23970743	     -9.30081607	     -1.61417995	     78.00573145	      1.36145685	    -24.72520777	     -7.99288428	     -7.49999987	    -41.00262490	     16.19556466	     12.41148598	    101.50799133	    -12.25874632	     84.60160704	    141.08084466	     84.69124279	     88.70507045	      7.85455802	     56.51220565	    120.25136480	     94.30095726
      8.03333330	    -35.78198562	     -4.12079379	      8.86784991	      0.88714499	      0.71519941	      0.03214600	     83.49701987	      5.39467677	     -4.09792327	     73.56871387	      1.28401628	     28.54219265	    -19.97758401	     -7.49999987	     38.07075434	     -8.27987246	     -1.25460096	     77.31383410	      1.34938096	    -27.66750622	    -11.27030474	     -7.49999987	    -40.74469338	     15.91950881	     11.62309932	    101.04694585	    -12.37058702	     84.64427088	    141.00574538	     84.91781057	     88.66854289	      8.04566780	     56.61239446	    120.17324609	     94.70245325
      8.05000000	    -37.47372461	     -2.44842452	     10.50489087	      0.88025413	      0.71559216	      0.03183150	     85.63456632	      3.29468841	     -1.77496629	     74.14468655	      1.29406890	     27.09241051	    -20.44090916	     -7.49999987	     46.69876886	     -6.36986261	      0.27796245	     80.80152039	      1.41025257	    -37.00272414	    -16.08498163	     -7.49999987	    -39.46698476	     14.97178901	      9.34006271	    100.10644543	    -13.11169831	     84.55662668	    141.45814059	     85.83331838	     89.16257476	      8.47863734	     57.07398266	    120.37566705	     95.65630746
      8.06666670	    -41.19870001	     -0.29384252	      9.68232042	      0.87363251	      0.71601548	      0.04052037	     88.41761660	     -0.21163369	     -3.40034228	     72.97858741	      1.27371663	     28.62599254	    -13.21591229	     -7.49999987	     60.48902890	     -5.73882698	      3.32925248	     87.48224154	      1.52685315	    -47.88245687	    -16.60495323	     -7.49999987	    -36.60561284	     12.38994463	      8.55968679	     99.46411818	    -13.10310324	     84.74305685	    141.19387200	     86.60786975	     89.17361109	      7.93206536	     57.24071882	    121.27137294	     96.04155441
      8.08333330	    -45.09219279	      1.13236107	      7.98173048	      0.86983225	      0.70219162	      0.04286926	     95.01957064	     -3.07215657	     -6.54426185	     77.58354779	      1.35408835	     38.33924476	     -5.07949249	     -7.49999987	     74.39337018	     -2.65913498	     11.76275044	     93.56874003	      1.63308259	    -49.67045407	    -15.07063078	     -7.49999987	    -33.03411523	      9.70346699	      8.63528893	     98.32782098	    -13.24928950	     84.53964701	    141.72301122	     87.65344394	     89.42184278	      7.80667684	     57.67885355	    121.91045102	     96.98931910
      8.10000000	    -48.83504483	      2.62689478	      8.02686638	      0.85909944	      0.69707020	      0.04974499	    103.40498583	     -6.91730500	     -9.78770465	     82.88484848	      1.44661351	     47.54612222	      2.16467554	     -7.49999987	     82.51041484	     10.72275138	     31.92985875	     96.19051244	      1.67884115	    -49.67037246	     -9.94489927	     -7.49999987	    -29.80866977	      7.21052502	      7.42780104	     97.83017938	    -13.35885583	     83.93954514	    142.72567946	     88.28353285	     90.57658248	      8.09040697	     58.27316745	    122.27671781	     97.04702222
      8.11666670	    -50.76697609	      9.49751501	      7.92398828	      0.85667677	      0.69086074	      0.05398603	    110.12006725	     -7.19769459	     -5.11008196	     87.63525696	      1.52952377	     49.14209263	      2.71086972	     -7.49999987	     82.00852546	     19.98729939	     39.88744120	     96.50000980	      1.68424290	    -49.82402838	    -32.70835613	     -7.49999987	    -28.31662891	     -1.20378258	      3.93777904	     96.23082819	    -12.40754617	     82.51253027	    142.01037468	     87.44025610	     92.58360396	      7.11425630	     59.20289151	    122.46419726	     95.47545158
      8.13333330	    -53.62613067	      9.25392679	     10.55945632	      0.84905082	      0.68389270	      0.05145820	    114.99185839	     -8.54243387	     -2.89847814	     88.87846727	      1.55122189	     49.63571160	     -4.25850750	     -7.49999987	     86.08610215	     23.75812109	     39.91656440	     91.13312032	      1.59057301	    -49.87443539	    -34.46886530	     -7.49999987	    -25.33071609	     -1.26650756	      1.92592783	     95.87239913	    -12.29047572	     80.79388939	    141.97749991	     87.00005647	     94.07045203	      7.28514669	     59.11513765	    121.75249145	     94.07698666
      8.15000000	    -55.32896983	      4.48222609	     14.20304865	      0.84575460	      0.68595447	      0.04801924	    115.22425324	    -12.98912252	     -6.44157643	     86.66970312	      1.51267168	     49.29083453	     -4.31523265	     -7.49999987	     88.60052207	     25.10282747	     39.86966429	     85.59580056	      1.49392855	    -49.85528997	    -34.76939292	     -7.49999987	    -22.83239247	      4.87545641	      1.00733882	     96.42660992	    -12.31352060	     80.58768329	    141.58933169	     92.08185987	     93.50666424	      7.63171222	     58.24819662	    121.94497954	     95.82549579
      8.16666670	    -55.01500523	      0.84521438	     14.73459950	      0.84162842	      0.68469653	      0.05333562	    114.39722361	    -13.28450960	     -9.76858398	     86.89149608	      1.51654270	     48.95874147	     -7.50335543	     -7.49999987	     88.73082485	     22.31075541	     39.73883089	     87.08915251	      1.51999245	    -49.83371660	    -34.84246256	     -7.49999987	    -22.41175568	      8.98120442	      2.17230984	     96.52487984	    -11.90554904	     80.81589036	    141.02104899	     92.30438515	     93.04227260	      7.74032596	     57.52829671	    122.28550833	     96.10280639
      8.18333330	    -54.35437461	     -0.90832513	     14.16891294	      0.83882622	      0.68153777	      0.05113147	    113.11861003	    -12.52626266	    -11.32380185	     86.57717348	      1.51105673	     47.57926173	    -10.83535030	     -7.49999987	     88.18782659	     20.69255777	     39.23102430	     88.97918576	      1.55297976	    -49.78354895	    -34.87248533	     -7.49999987	    -22.85856891	     10.85454735	      3.53770817	     96.81774365	    -11.81999696	     81.17976525	    140.70217479	     90.47807078	     93.13749262	      8.07625458	     57.03651000	    122.06403627	     94.18292434
      8.20000000	    -54.46233112	     -1.82479582	     14.14996160	      0.84306818	      0.68335405	      0.04212209	    113.48504394	    -13.11145840	    -11.68502306	     87.10317922	      1.52023727	     46.06385816	    -13.87962805	     -7.49999987	     90.00942367	     18.53012034	     33.73077186	     89.64537305	      1.56460692	    -49.54167472	    -34.89672950	     -7.49999987	    -22.72438281	     12.30736381	      4.15644560	     97.08737397	    -11.79342096	     81.59866489	    140.23373233	     90.84648623	     92.60994793	      8.56586486	     56.53433133	    122.11266410	     94.55691679
